<?xml version="1.0" encoding="iso-8859-1"?>
<!-- Generator: Adobe Illustrator 19.0.0, SVG Export Plug-In . SVG Version: 6.00 Build 0)  -->
<svg version="1.1" id="Capa_1" xmlns="http://www.w3.org/2000/svg" xmlns:xlink="http://www.w3.org/1999/xlink" x="0px" y="0px"
	 viewBox="0 0 512.005 512.005" style="enable-background:new 0 0 512.005 512.005;" xml:space="preserve">
<g>
	<g>
		<g>
			<path d="M224,170.669h-42.667c-5.888,0-10.667,4.779-10.667,10.667v128c0,5.888,4.779,10.667,10.667,10.667H224
				c5.888,0,10.667-4.779,10.667-10.667v-128C234.667,175.448,229.888,170.669,224,170.669z"/>
			<path d="M138.667,234.669H96c-5.888,0-10.667,4.779-10.667,10.667v64c0,5.888,4.779,10.667,10.667,10.667h42.667
				c5.888,0,10.667-4.779,10.667-10.667v-64C149.333,239.448,144.555,234.669,138.667,234.669z"/>
			<path d="M309.333,106.669h-42.667c-5.888,0-10.667,4.779-10.667,10.667v192c0,5.888,4.779,10.667,10.667,10.667h42.667
				c5.888,0,10.667-4.779,10.667-10.667v-192C320,111.448,315.221,106.669,309.333,106.669z"/>
			<path d="M505.749,475.587L378.411,348.248c30.123-36.779,48.256-83.755,48.256-134.912c0-117.632-95.701-213.333-213.333-213.333
				S0,95.704,0,213.336s95.701,213.333,213.333,213.333c51.157,0,98.133-18.133,134.912-48.256l127.339,127.339
				c4.16,4.16,9.621,6.251,15.083,6.251s10.923-2.091,15.083-6.251C514.091,497.411,514.091,483.928,505.749,475.587z
				 M213.333,384.003c-94.101,0-170.667-76.565-170.667-170.667S119.232,42.669,213.333,42.669S384,119.235,384,213.336
				S307.435,384.003,213.333,384.003z"/>
		</g>
	</g>
</g>
<g>
</g>
<g>
</g>
<g>
</g>
<g>
</g>
<g>
</g>
<g>
</g>
<g>
</g>
<g>
</g>
<g>
</g>
<g>
</g>
<g>
</g>
<g>
</g>
<g>
</g>
<g>
</g>
<g>
</g>
</svg>
